<?xml version="1.0" encoding="UTF-8"?>
<svg width="35px" height="14px" viewBox="0 0 35 14" version="1.1" xmlns="http://www.w3.org/2000/svg" xmlns:xlink="http://www.w3.org/1999/xlink">
    <title>Logo/UHC/Monogram White</title>
    <g id="Brand-Marks" stroke="none" stroke-width="1" fill="none" fill-rule="evenodd">
        <g transform="translate(-695.000000, -1972.000000)" fill="#FFFFFF" id="Monogram">
            <g transform="translate(120.000000, 1744.000000)">
                <g id="Logos" transform="translate(130.000000, 208.000000)">
                    <g id="Logo/UHC/Monogram-White" transform="translate(425.000000, 0.000000)">
                        <g id="Logo/UHC/Monogram-White" transform="translate(20.000000, 20.000000)">
                            <path d="M34.0488606,10.0504444 C33.3155017,11.5951111 32.2455191,12.4555278 30.8383215,12.4555278 C28.7570881,12.4555278 27.3697962,10.38275 27.3697962,6.94127778 C27.3697962,3.51963889 28.7373794,1.38833333 30.8976445,1.38833333 C31.9481156,1.38833333 32.8001205,1.75991667 33.2163672,2.42472222 C32.7802148,2.62013889 32.4632997,3.05025 32.4632997,3.55872222 C32.4832054,4.26261111 33.0579096,4.80997222 33.7120397,4.80997222 C34.3659727,4.80997222 34.9802914,4.26261111 34.9802914,3.44147222 C34.9802914,1.54466667 33.1570442,0 30.6993755,0 C27.0130697,0 24.8924189,3.38255556 24.8924189,7.11744444 C24.8924189,10.7348889 27.0327783,14 30.5013036,14 C32.7802148,14 34.1679008,12.4749722 35,10.4609167 L34.0488606,10.0504444 Z M19.045848,0.136888889 L24.5157866,0.136888889 L24.5157866,0.899305556 C23.4061896,0.938777778 22.9107142,1.32980556 22.9107142,2.17058333 L22.9107142,11.7905278 C22.9107142,12.6315 23.4061896,13.0225278 24.5157866,13.0616111 L24.5157866,13.8242222 L19.045848,13.8242222 L19.045848,13.0616111 C20.1558391,13.0225278 20.6316059,12.6511389 20.6316059,11.7905278 L20.6316059,7.31305556 L16.1325153,7.31305556 L16.1325153,11.7905278 C16.1325153,12.6315 16.6080851,13.0225278 17.6981705,13.0616111 L17.6981705,13.8242222 L12.2282318,13.8242222 L12.2282318,13.0616111 C13.3579316,13.0225278 13.8534071,12.6511389 13.8534071,11.7905278 L13.8534071,2.52252778 C13.8534071,1.56430556 13.397546,0.918944444 12.2282318,0.918944444 C11.0589176,0.918944444 10.6032536,1.56430556 10.6032536,2.52252778 L10.6032536,9.40508333 C10.6032536,12.1035833 8.7599036,14 6.14377742,14 C3.3689966,14 1.58556088,12.2208333 1.58556088,9.46380556 L1.58556088,2.17058333 C1.58556088,1.31016667 1.10979407,0.938777778 -3.55271368e-15,0.899305556 L-3.55271368e-15,0.136888889 L5.45023003,0.136888889 L5.45023003,0.899305556 C4.34023887,0.938777778 3.86466915,1.32980556 3.86466915,2.17058333 L3.86466915,9.28783333 C3.86466915,11.2628056 4.91514018,12.4944167 6.57973275,12.4944167 C8.28413679,12.4944167 9.35451356,11.2628056 9.35451356,9.28783333 L9.35451356,2.46380556 C9.35451356,1.48613889 8.7599036,0.918944444 7.689921,0.899305556 L7.689921,0.136888889 L17.7180762,0.136888889 L17.7180762,0.899305556 C16.6080851,0.938777778 16.1325153,1.31016667 16.1325153,2.17058333 L16.1325153,6.25722222 L20.6316059,6.25722222 L20.6316059,2.17058333 C20.6316059,1.31016667 20.1558391,0.938777778 19.045848,0.899305556 L19.045848,0.136888889 Z" id="Combined-Shape"></path>
                        </g>
                    </g>
                </g>
            </g>
        </g>
    </g>
</svg>