<?xml version="1.0" encoding="UTF-8"?>
<svg width="134px" height="24px" viewBox="0 0 134 24" version="1.1" xmlns="http://www.w3.org/2000/svg" xmlns:xlink="http://www.w3.org/1999/xlink">
    <title>Logo/UHC/LinkAffiliation White Copy</title>
    <g id="Brand-Marks" stroke="none" stroke-width="1" fill="none" fill-rule="evenodd">
        <g transform="translate(-61.000000, -2541.000000)" id="Link-Affiliation">
            <g transform="translate(0.000000, 2344.000000)">
                <g id="Logos" transform="translate(60.000000, 139.000000)">
                    <g id="Logo/UHC/LinkAffiliation-White" transform="translate(1.000000, 0.000000)">
                        <g id="Logo/UHC/LinkAffiliation-White-Copy" transform="translate(0.000000, 58.000000)">
                            <path d="M90.8571429,0 L90.8571429,24 L90.2857143,24 L90.2857143,0 L90.8571429,0 Z M13.8472877,0.545454545 L13.8472877,15.7162833 C13.8472877,20.6077795 11.2020539,23.4545455 7.4547146,23.4545455 C6.15214419,23.4545455 4.92963082,23.0725183 3.8475073,22.4038479 C4.60901595,22.652141 5.41061757,22.785998 6.27229419,22.785998 C9.91946555,22.785998 12.4645314,20.2638567 12.4645314,15.4679903 L12.4645314,1.17589766 L13.8472877,0.545454545 Z M11.161961,1.65367742 L11.161961,15.5253927 C11.161961,19.8626545 8.85745298,22.0789773 5.65104649,22.0789773 C4.468755,22.0789773 3.26635257,21.6586 2.264415,20.9517023 C3.1061096,21.2191704 3.94780419,21.3911318 4.6892019,21.3911318 C7.75521852,21.3911318 9.79931555,19.556959 9.79931555,15.4107108 L9.79931555,2.26506835 L11.161961,1.65367742 Z M74.0749642,15.1772539 C75.5562222,15.1772539 76.4996526,16.3365544 76.5675044,17.8070441 L76.5714286,17.9780487 L76.5714286,18.3266423 L72.6505679,18.3266423 C72.6505679,19.7931693 73.3438798,20.718737 74.3650259,20.718737 C75.1886292,20.718737 75.6280528,20.2789813 75.887893,19.6924833 L75.9408989,19.5646659 L76.482992,19.7089709 C76.1929303,20.6467074 75.4746086,21.4760308 74.2013022,21.4760308 C72.3857738,21.4760308 71.3267263,19.9732432 71.3267263,18.3266423 C71.3267263,16.6797956 72.4236752,15.1772539 74.0749642,15.1772539 Z M57.83722,15.1772416 C59.1862003,15.1772416 59.9424234,16.0666715 59.9424234,16.7879506 C59.9424234,17.1967737 59.6524906,17.4852607 59.274508,17.4852607 C58.9087724,17.4852607 58.6062058,17.1967737 58.6062058,16.8480572 C58.6062058,16.6196767 58.7321571,16.4152652 58.9211484,16.2952978 C58.7068895,16.0306568 58.3541744,15.8864747 57.9001312,15.8864747 C56.8788562,15.8864747 56.1980491,16.8360113 56.1980491,18.32663 C56.1980491,19.793157 56.8916189,20.7187247 57.9128939,20.7187247 C58.7127938,20.7187247 59.139744,20.2998486 59.3878595,19.7456158 L59.4383606,19.6248832 L59.9804537,19.7811111 C59.7030258,20.6827099 58.9969512,21.4760185 57.7490413,21.4760185 C55.9335129,21.4760185 54.8745943,19.9734768 54.8745943,18.32663 C54.8745943,16.6797833 55.9587805,15.1772416 57.83722,15.1772416 Z M62.9176571,15.1772047 C64.2804931,15.1772047 65.1126725,15.8701909 65.1824597,17.0559725 L65.1872288,17.2207057 L65.1872288,20.3581712 C65.1872288,20.7797967 65.3909928,20.9760339 65.8390794,20.9565506 L65.9562146,20.9471912 L65.9562146,21.3557685 C65.7040543,21.427921 65.4643989,21.4640587 65.1619612,21.4640587 C64.4560327,21.4640587 64.0135609,21.1395153 63.9577022,20.5977603 L63.9516949,20.4783844 L63.9516949,20.2980646 C63.6488705,21.0071749 62.980955,21.4761046 62.1740679,21.4761046 C61.1022576,21.4761046 60.4215795,20.8990076 60.4215795,19.9974088 C60.4215795,19.2595496 60.8038068,18.8325176 61.8977594,18.3721187 L62.0982651,18.2904555 L63.9643287,17.5573764 L63.9643287,17.2808123 C63.9643287,16.3552446 63.4977805,15.8022394 62.7287947,15.8022394 C62.2368501,15.8022394 61.8335999,15.9826821 61.6067072,16.283215 C61.8082034,16.3912594 61.9469173,16.6077169 61.9469173,16.8480203 C61.9469173,17.1967368 61.6444796,17.4853468 61.2790019,17.4853468 C60.9007615,17.4853468 60.6108287,17.1967368 60.6108287,16.8240514 C60.6108287,15.9465444 61.6948859,15.1772047 62.9176571,15.1772047 Z M31.7533379,15.1772539 C33.2343476,15.1772539 34.1776493,16.3365544 34.2454919,17.8070441 L34.2494155,17.9780487 L34.2494155,18.3266423 L30.3288126,18.3266423 C30.3288126,19.7931693 31.0221246,20.718737 32.0432707,20.718737 C32.8669943,20.718737 33.3063136,20.2789813 33.5661394,19.6924833 L33.6191436,19.5646659 L34.1613657,19.7089709 C33.871304,20.6467074 33.1528534,21.4760308 31.879418,21.4760308 C30.0640185,21.4760308 29.004971,19.9732432 29.004971,18.3266423 C29.004971,16.6797956 30.101791,15.1772539 31.7533379,15.1772539 Z M37.2245332,15.1772047 C38.5873692,15.1772047 39.4195486,15.8701909 39.4893358,17.0559725 L39.4941049,17.2207057 L39.4941049,20.3581712 C39.4941049,20.7797967 39.6979788,20.9760339 40.1459809,20.9565506 L40.2630907,20.9471912 L40.2630907,21.3557685 C40.0109304,21.427921 39.7714039,21.4640587 39.4688373,21.4640587 C38.7629088,21.4640587 38.320437,21.1395153 38.2645783,20.5977603 L38.258571,20.4783844 L38.258571,20.2980646 C37.9558755,21.0071749 37.2878311,21.4761046 36.4809439,21.4761046 C35.4091337,21.4761046 34.7285845,20.8990076 34.7285845,19.9974088 C34.7285845,19.2595496 35.1106969,18.8325176 36.2047452,18.3721187 L36.4052701,18.2904555 L38.2712048,17.5573764 L38.2712048,17.2808123 C38.2712048,16.3552446 37.8046566,15.8022394 37.0356708,15.8022394 C36.5438551,15.8022394 36.140476,15.9826821 35.9135833,16.283215 C36.1153373,16.3912594 36.2537934,16.6077169 36.2537934,16.8480203 C36.2537934,17.1967368 35.9513557,17.4853468 35.585878,17.4853468 C35.2076375,17.4853468 34.9177048,17.1967368 34.9177048,16.8240514 C34.9177048,15.9465444 36.001762,15.1772047 37.2245332,15.1772047 Z M45.9109143,13.5063891 L45.9109143,15.3575244 L47.6380061,15.3575244 L47.6380061,15.9826821 L45.9109143,15.9826821 L45.9109143,19.8774414 C45.9109143,20.3099876 46.0875296,20.682673 46.6167311,20.682673 C46.9836738,20.682673 47.2566461,20.4242418 47.4359385,19.9979744 L47.4869162,19.8651497 L47.9407016,19.9854858 C47.6760364,20.8629928 47.0960419,21.4758587 46.2133519,21.4758587 C45.3202842,21.4758587 44.7422895,21.0043003 44.6808242,20.1619359 L44.6753803,20.0094547 L44.6753803,15.9826821 L43.5153914,15.9826821 L43.5153914,15.561936 C44.2580525,15.4135194 44.9663912,14.9502753 45.2409535,13.7089255 L45.2806424,13.5063891 L45.9109143,13.5063891 Z M24.126159,12.941424 L24.126159,13.3621701 L23.9496726,13.374216 C23.5190128,13.4075739 23.1850173,13.5535212 23.1361817,13.9727364 L23.1300227,14.0833263 L23.1300227,16.7038014 L26.4331164,16.7038014 L26.4331164,14.0833263 C26.4331164,13.6174506 26.1323585,13.427864 25.7192367,13.3826013 L25.6137244,13.374216 L25.4246041,13.3621701 L25.4246041,12.941424 L28.7654703,12.941424 L28.7654703,13.3621701 L28.5889839,13.374216 C28.1584431,13.4075739 27.8245666,13.5535212 27.7757486,13.9727364 L27.7695918,14.0833263 L27.7695918,20.2138294 C27.7695918,20.679932 28.0703498,20.8591673 28.4834716,20.9123106 L28.5889839,20.9230625 L28.7654703,20.9351084 L28.7654703,21.3557316 L25.4246041,21.3557316 L25.4246041,20.9351084 L25.6137244,20.9230625 C26.0442652,20.9007105 26.3781416,20.7455553 26.4269597,20.324665 L26.4331164,20.2138294 L26.4331164,17.3530508 L23.1300227,17.3530508 L23.1300227,20.2138294 C23.1300227,20.679932 23.4308905,20.8591673 23.8441306,20.9123106 L23.9496726,20.9230625 L24.126159,20.9351084 L24.126159,21.3557316 L20.7852928,21.3557316 L20.7852928,20.9351084 L20.9742842,20.9230625 C21.404944,20.9007105 21.7387197,20.7455553 21.7875216,20.324665 L21.7936762,20.2138294 L21.7936762,14.0833263 C21.7936762,13.6174506 21.4930281,13.427864 21.0798218,13.3826013 L20.9742842,13.374216 L20.7852928,13.3621701 L20.7852928,12.941424 L24.126159,12.941424 Z M70.0155443,15.2012473 C70.7217478,15.2012473 71.3141183,15.6700541 71.3141183,16.4274709 C71.3141183,16.8360481 71.0118095,17.1244123 70.646074,17.1244123 C70.2804673,17.1244123 69.9776429,16.8360481 69.9776429,16.4875774 C69.9776429,16.2349823 70.1163568,16.0306936 70.3306157,15.9225264 C70.2299321,15.8142362 70.1039809,15.7662984 69.9148606,15.7662984 C69.1188865,15.7662984 68.4612676,16.6240403 68.3835878,18.0135822 L68.3766312,18.2063308 L68.3766312,20.225863 C68.3766312,20.6886161 68.5992401,20.8786975 68.9663102,20.9256264 L69.0699431,20.9349732 L69.2465585,20.947142 L69.2465585,21.3557193 L66.2586651,21.3557193 L66.2586651,20.947142 L66.4477854,20.9349732 C66.8404752,20.9130017 67.0958083,20.7596521 67.1356368,20.3454052 L67.1410973,20.225863 L67.1410973,16.5235922 C67.1410973,16.0606138 66.9400451,15.8707201 66.6052651,15.8236348 L66.5106965,15.8142362 L66.2586651,15.8023132 L66.2586651,15.4056589 L68.3766312,15.2494309 L68.3766312,16.4754086 C68.6539302,15.6580082 69.284331,15.2012473 70.0155443,15.2012473 Z M42.6836491,12.7851838 L42.6836491,20.225863 C42.6836491,20.6886161 42.9061497,20.8786975 43.273301,20.9258157 L43.376961,20.935219 L43.5534475,20.947142 L43.5534475,21.3557193 L40.5655541,21.3557193 L40.5655541,20.947142 L40.7548033,20.935219 C41.1474931,20.9130222 41.4028262,20.7596538 41.4426547,20.3454054 L41.4481152,20.225863 L41.4481152,14.083314 C41.4481152,13.6206735 41.2469547,13.420273 40.9121567,13.3809966 L40.8175855,13.3742037 L40.5404154,13.3621578 L40.5404154,12.9656265 L42.6836491,12.7851838 Z M50.0585645,12.7851838 L50.058,16.557 L50.1180408,16.4039638 C50.440471,15.6478555 51.1326308,15.2253391 51.9244992,15.2253391 C53.0623726,15.2253391 53.6653989,15.9305397 53.7228569,16.8049462 L53.7273938,16.9443383 L53.7273938,20.225863 C53.7273938,20.6886161 53.9497861,20.8786975 54.3170186,20.9258157 L54.4207057,20.935219 L54.5971922,20.947142 L54.5971922,21.3557193 L51.6091699,21.3557193 L51.6091699,20.947142 L51.7982901,20.935219 C52.1912163,20.9130222 52.4465691,20.7596538 52.4863992,20.3454054 L52.4918599,20.225863 L52.4918599,17.0765974 C52.4918599,16.3311037 52.1008567,15.9466182 51.5084863,15.9466182 C50.7743313,15.9466182 50.1436613,16.7351891 50.0658682,18.061529 L50.0585645,18.2546373 L50.0585645,20.225863 C50.0585645,20.6886161 50.2810651,20.8786975 50.6483157,20.9258157 L50.7520054,20.935219 L50.9283629,20.947142 L50.9283629,21.3557193 L47.9404695,21.3557193 L47.9404695,20.947142 L48.1295898,20.935219 C48.5225159,20.9130222 48.7778687,20.7596538 48.8176988,20.3454054 L48.8231595,20.225863 L48.8231595,14.083314 C48.8231595,13.6206735 48.6218907,13.420273 48.2871739,13.3809966 L48.1926298,13.3742037 L47.9154598,13.3621578 L47.9154598,12.9656265 L50.0585645,12.7851838 Z M63.9643287,18.1223045 L62.4641296,18.7593852 C61.9345413,18.9758426 61.6568556,19.360451 61.6568556,19.8531038 C61.6568556,20.406109 62.0099574,20.7667485 62.5646843,20.7667485 C63.2910704,20.7667485 63.8263429,20.1341301 63.9366819,19.1728071 L63.9516949,18.9998115 L63.9643287,18.1223045 Z M38.2712048,18.1223045 L36.7710056,18.7593852 C36.2414174,18.9758426 35.9638606,19.360451 35.9638606,19.8531038 C35.9638606,20.406109 36.3169624,20.7667485 36.8715604,20.7667485 C37.5980682,20.7667485 38.1332325,20.1341301 38.2435591,19.1728071 L38.258571,18.9998115 L38.2712048,18.1223045 Z M8.51672717,2.7619003 L8.51672717,15.295906 C8.51672717,18.9644974 6.75328095,20.6269546 4.22832608,20.6269546 C3.1661846,20.6269546 2.16424703,20.2830318 1.30257041,19.6524658 C2.04396811,19.8626545 2.72529081,19.9963886 3.32655649,19.9963886 C5.71125041,19.9963886 7.17406379,18.7544316 7.17406379,15.4870425 L7.17406379,3.37329123 L8.51672717,2.7619003 Z M114.36526,10.1704058 L114.36526,19.6361966 L113.213565,19.6361966 L113.213565,10.1704058 L114.36526,10.1704058 Z M5.91158636,3.87000026 L5.91158636,15.8310881 C5.91158636,17.9519042 4.80948081,19.2130363 3.02592365,19.2130363 C1.28457547,19.2130363 0.0849934048,18.0551402 0.004334176,16.3071278 L1.46549439e-14,16.1176085 L1.46549439e-14,6.41131659 L5.91158636,3.87000026 Z M74.0625882,15.8623952 C73.348134,15.8623952 72.8587156,16.4951233 72.7002197,17.5475809 L72.6757066,17.7376224 L75.2474581,17.7376224 C75.1971807,16.4752611 74.7559002,15.8623952 74.0625882,15.8623952 Z M31.740833,15.8623952 C31.0263788,15.8623952 30.5369604,16.4951233 30.3784645,17.5475809 L30.3539513,17.7376224 L32.9258317,17.7376224 C32.8754255,16.4752611 32.4341449,15.8623952 31.740833,15.8623952 Z M23.7910798,2.64763633 L23.7910798,3.06838244 L23.6145933,3.08030542 C23.1059755,3.11343165 22.8410901,3.33846089 22.8004746,3.73674165 L22.7949434,3.84964515 L22.7949434,8.12888997 C22.7949434,9.4513578 23.4885132,10.3287419 24.6608781,10.3287419 C25.7704328,10.3287419 26.4990093,9.56996584 26.5602663,8.31521125 L26.5644564,8.14105879 L26.5644564,3.96998124 C26.5644564,3.52611721 26.2744633,3.17441938 25.8035795,3.09451516 L25.6821531,3.08030542 L25.4930329,3.06838244 L25.4930329,2.64763633 L28.430391,2.64763633 L28.430391,3.06838244 L28.2539046,3.08030542 C27.741968,3.1136633 27.4231404,3.4440477 27.3771193,3.86340792 L27.3713436,3.96998124 L27.3713436,8.27331786 C27.3713436,10.0644696 26.1106709,11.2422637 24.4339854,11.2422637 C22.5495374,11.2422637 21.532846,10.0464021 21.4626288,8.48435789 L21.4587259,8.30933265 L21.4587259,3.84964515 C21.4587259,3.40897619 21.2256094,3.16010695 20.7693062,3.09385372 L20.6393338,3.08030542 L20.4502136,3.06838244 L20.4502136,2.64763633 L23.7910798,2.64763633 Z M45.5379723,4.88341699 C47.0191061,4.88341699 47.9624124,6.04283149 48.0302552,7.51332962 L48.0341788,7.68433477 L48.0341788,8.03280547 L44.1133181,8.03280547 C44.1133181,9.49945536 44.8067589,10.4249001 45.827905,10.4249001 C46.6516287,10.4249001 47.0908357,9.98503737 47.3507513,9.39862507 L47.403778,9.27082908 L47.946,9.41513405 C47.6560673,10.3528706 46.9373588,11.182194 45.6640524,11.182194 C43.8486529,11.182194 42.7896054,9.6796522 42.7896054,8.03280547 C42.7896054,6.38583582 43.8865543,4.88341699 45.5379723,4.88341699 Z M54.2366777,2.49132233 L54.2366777,9.93212445 C54.2366777,10.3946522 54.45907,10.5848182 54.8263025,10.6318573 L54.9299896,10.6412347 L55.106476,10.6534035 L55.106476,11.0617349 L53.0011438,11.0617349 L53.0011438,10.0764294 C52.7237159,10.7734938 52.0808102,11.182194 51.2487844,11.182194 C49.5971086,11.182194 48.6642702,9.6796522 48.6642702,8.03280547 C48.6642702,6.38583582 49.5971086,4.88341699 51.2487844,4.88341699 C52.0253418,4.88341699 52.6371546,5.22905403 52.9408374,5.82229056 L53.001,5.952 L53.0011438,3.78945252 C53.0011438,3.32681208 52.7997666,3.12661812 52.4653297,3.08718683 L52.3708719,3.0803423 L52.093444,3.06829639 L52.093444,2.67164209 L54.2366777,2.49132233 Z M40.696907,3.21263825 L40.696907,5.0636507 L42.4241277,5.0636507 L42.4241277,5.68893129 L40.696907,5.68893129 L40.696907,9.58344479 C40.696907,10.0161139 40.8733934,10.3889222 41.4028527,10.3889222 C41.7696782,10.3889222 42.0426398,10.1306942 42.2218345,9.70427901 L42.2727799,9.57139889 L42.7266943,9.69173498 C42.4619002,10.5691191 41.8819057,11.1822308 40.9994735,11.1822308 C40.1065275,11.1822308 39.5283096,10.7105628 39.4668192,9.86818619 L39.461373,9.71570386 L39.461373,5.68893129 L38.301513,5.68893129 L38.301513,5.26818518 C39.0441741,5.11965185 39.7523964,4.65651278 40.0268366,3.41517377 L40.0665062,3.21263825 L40.696907,3.21263825 Z M32.4014517,4.93162517 C33.5393251,4.93162517 34.1423515,5.6368257 34.1998094,6.51123221 L34.2043464,6.65062439 L34.2043464,9.93214903 C34.2043464,10.3947895 34.426847,10.5848615 34.7940975,10.6317896 L34.8977872,10.6411363 L35.0741447,10.6533052 L35.0741447,11.0618825 L32.0863803,11.0618825 L32.0863803,10.6533052 L32.2755005,10.6411363 C32.6684267,10.6191649 32.9235628,10.4658152 32.9633568,10.051663 L32.9688124,9.93214903 L32.9688124,6.78276055 C32.9688124,6.0373897 32.5780671,5.65265838 31.9855677,5.65265838 C31.2514128,5.65265838 30.6207427,6.44122934 30.5430618,7.76767614 L30.5357749,7.96080048 L30.5357749,9.93214903 C30.5357749,10.3947895 30.7580588,10.5848615 31.1253726,10.6317896 L31.2290868,10.6411363 L31.4055732,10.6533052 L31.4055732,11.0618825 L28.4176799,11.0618825 L28.4176799,10.6533052 L28.6066712,10.6411363 C28.9997156,10.6191649 29.2549699,10.4658152 29.2947828,10.051663 L29.300241,9.93214903 L29.300241,6.22975537 C29.300241,5.76688958 29.0988638,5.57690202 28.7643276,5.52980028 L28.6698402,5.52039931 L28.4176799,5.50859924 L28.4176799,5.11182202 L30.5357749,4.95559406 L30.5357749,6.26577015 C30.8255788,5.41235495 31.556921,4.93162517 32.4014517,4.93162517 Z M37.4695902,4.95569239 L37.4695902,9.93212445 C37.4695902,10.3948776 37.6920908,10.5848557 38.0593414,10.631862 L38.1630311,10.6412347 L38.3395175,10.6534035 L38.3395175,11.0619808 L35.3516242,11.0619808 L35.3516242,10.6534035 L35.5407444,10.6412347 C35.9336706,10.6191505 36.188915,10.4658948 36.2287271,10.0516644 L36.2341852,9.93212445 L36.2341852,6.22973078 C36.2341852,5.76697767 36.0328081,5.5668776 35.6982718,5.52727339 L35.6037845,5.52037472 L35.288713,5.50845174 L35.288713,5.11192035 L37.4695902,4.95569239 Z M51.4630433,5.56868124 C50.5806111,5.56868124 50.0006166,6.51821782 50.0006166,8.03280547 C50.0006166,9.54739313 50.5806111,10.4971755 51.4630433,10.4971755 C52.3960106,10.4971755 53.0011438,9.53534723 53.0011438,8.03280547 C53.0011438,6.53026372 52.3960106,5.56868124 51.4630433,5.56868124 Z M114.36526,6.27272727 L114.36526,8.49997216 L113.213565,8.49997216 L113.213565,6.27272727 L114.36526,6.27272727 Z M45.5253385,5.56868124 C44.8108843,5.56868124 44.3214658,6.20119005 44.1630785,7.25372682 L44.1385857,7.4437855 L46.7104661,7.4437855 C46.6599309,6.1816701 46.2187793,5.56868124 45.5253385,5.56868124 Z M36.8140508,2.39531158 C37.2425686,2.39531158 37.620938,2.7439052 37.620938,3.17657429 C37.620938,3.63333519 37.2425686,3.98180589 36.8140508,3.98180589 C36.3727703,3.98180589 36.0070347,3.63333519 36.0070347,3.17657429 C36.0070347,2.7439052 36.3727703,2.39531158 36.8140508,2.39531158 Z" id="Combined-Shape" fill="#002677"></path>
                            <path d="M122.657468,10.5426898 C123.44638,10.5426898 124.060234,10.7977093 124.500181,11.3077484 C124.938977,11.8172307 125.158951,12.4982108 125.158951,13.3495752 L125.158951,19.6359739 L123.935275,19.6359739 L123.935275,13.3495752 C123.935275,12.8278431 123.79304,12.4113483 123.507996,12.1000908 C123.222951,11.7893901 122.853833,11.6340398 122.40064,11.6340398 C121.785635,11.6340398 121.264493,11.8935138 120.836638,12.4130187 C120.409359,12.9314099 120.195719,13.5310956 120.195719,14.2076213 L120.195719,19.6359739 L118.972043,19.6359739 L118.972043,10.7481531 L120.078822,10.7481531 L120.194567,12.0165691 C120.518194,11.5254616 120.885009,11.1568526 121.295013,10.910742 C121.705016,10.6657451 122.159936,10.5426898 122.657468,10.5426898 Z M129.02813,6.90376143 L129.02813,14.762595 L132.194141,10.9384155 L133.572145,10.9384155 L130.791376,14.1333983 L134,19.6363636 L132.573625,19.6363636 L130.066384,14.9663879 L129.02813,16.1590776 L129.02813,19.6363636 L127.84649,19.6363636 L127.84649,6.90376143 L129.02813,6.90376143 Z M105.434437,6.82953849 L105.434437,18.5531988 L110.910174,18.5531988 L110.910174,19.6361966 L104,19.6361966 L104,6.82953849 L105.434437,6.82953849 Z" id="Combined-Shape" fill="#B1B1B1"></path>
                        </g>
                    </g>
                </g>
            </g>
        </g>
    </g>
</svg>